<svg width="32" height="33" viewBox="0 0 32 33" fill="none" xmlns="http://www.w3.org/2000/svg">
<rect width="32" height="32" transform="translate(0 0.56897)" fill="white"/>
<path d="M21.5573 13.8888L16.8853 6.88414C16.6827 6.58516 16.3413 6.43567 16 6.43567C15.6587 6.43567 15.3173 6.58516 15.1147 6.89482L10.4427 13.8888H5.33333C4.74666 13.8888 4.26666 14.3694 4.26666 14.9566C4.26666 15.0527 4.27733 15.1488 4.30933 15.2449L7.01866 25.1434C7.264 26.0403 8.08533 26.7023 9.06666 26.7023H22.9333C23.9147 26.7023 24.736 26.0403 24.992 25.1434L27.7013 15.2449L27.7333 14.9566C27.7333 14.3694 27.2533 13.8888 26.6667 13.8888H21.5573ZM12.8 13.8888L16 9.19057L19.2 13.8888H12.8ZM16 22.4312C14.8267 22.4312 13.8667 21.4702 13.8667 20.2956C13.8667 19.121 14.8267 18.16 16 18.16C17.1733 18.16 18.1333 19.121 18.1333 20.2956C18.1333 21.4702 17.1733 22.4312 16 22.4312Z" fill="#394953"/>
</svg>
