<svg width="32" height="33" viewBox="0 0 32 33" fill="none" xmlns="http://www.w3.org/2000/svg">
<rect width="32" height="32" transform="translate(0 0.56897)" fill="white"/>
<path d="M22 4.56897C19.68 4.56897 17.4533 5.64897 16 7.35564C14.5467 5.64897 12.32 4.56897 9.99999 4.56897C5.89332 4.56897 2.66666 7.79564 2.66666 11.9023C2.66666 16.9423 7.19999 21.049 14.0667 27.289L16 29.0356L17.9333 27.2756C24.8 21.049 29.3333 16.9423 29.3333 11.9023C29.3333 7.79564 26.1066 4.56897 22 4.56897ZM16.1333 25.3023L16 25.4356L15.8667 25.3023C9.51999 19.5556 5.33332 15.7556 5.33332 11.9023C5.33332 9.23564 7.33332 7.23564 9.99999 7.23564C12.0533 7.23564 14.0533 8.55564 14.76 10.3823H17.2533C17.9466 8.55564 19.9466 7.23564 22 7.23564C24.6666 7.23564 26.6666 9.23564 26.6666 11.9023C26.6666 15.7556 22.48 19.5556 16.1333 25.3023Z" fill="#394953"/>
</svg>
