<svg width="182" height="80" viewBox="0 0 182 80" fill="none" xmlns="http://www.w3.org/2000/svg">
<path fill-rule="evenodd" clip-rule="evenodd" d="M30.322 30.2269H26.0027V8.74152H30.375C34.8538 8.74152 36.88 10.5852 38.0531 12.3227C39.493 14.5342 39.9729 17.3256 39.9729 19.5375C39.9729 25.0665 37.8397 30.2269 30.322 30.2269ZM28.9885 0H15.925V38.9689H29.7352C44.718 38.9689 50.05 30.0166 50.05 19.3795C50.05 15.1142 49.1438 10.9534 46.4244 7.26757C41.3058 0 33.4143 0 28.9885 0ZM123.988 38.9695H114.888V2.29288H123.988V38.9695ZM67.1126 16.2166C71.4677 16.2166 73.139 19.3369 73.4934 20.9986H60.7317C61.0861 19.3369 62.7569 16.2166 67.1126 16.2166ZM75.2154 36.4519C77.5955 34.8411 79.5705 32.4249 80.9381 29.3041H72.3286C71.1639 30.7637 69.7964 31.9214 67.2139 31.9214C63.922 31.9214 61.1362 29.9583 60.6302 26.6359H81.6977L81.7123 26.5425L81.7382 26.3815C81.8243 25.8484 81.9 25.3801 81.9 24.4213C81.9 15.9142 75.6205 9.16914 67.0618 9.16914C58.5031 9.16914 52.325 16.3673 52.325 24.1693C52.325 32.4753 59.1612 38.9689 67.2139 38.9689C70.1001 38.9689 72.8859 38.1131 75.2154 36.4519ZM140.481 31.1399C144.179 31.1399 147.312 28.1602 147.312 24.069C147.312 19.9783 144.179 16.9981 140.481 16.9981C136.783 16.9981 133.65 19.9783 133.65 24.069C133.65 28.1602 136.783 31.1399 140.481 31.1399ZM140.481 9.16914C150.856 9.16914 155.837 17.1999 155.837 24.069C155.837 30.9381 150.856 38.9689 140.481 38.9689C130.107 38.9689 125.125 30.9381 125.125 24.069C125.125 17.1999 130.107 9.16914 140.481 9.16914ZM167.626 48.138L182 11.4614H172.9L167.419 27.4209H167.316L161.577 11.4614H152.425L163.076 37.5812L158.526 48.138H167.626ZM103.801 24.1572C103.801 28.2726 100.709 31.2699 97.0589 31.2699C93.4086 31.2699 90.3157 28.2726 90.3157 24.1572C90.3157 20.0422 93.4086 17.0444 97.0589 17.0444C100.709 17.0444 103.801 20.0422 103.801 24.1572ZM111.475 24.0525C111.475 17.1432 107.3 9.16914 97.0588 9.16914C86.8177 9.16914 81.9 17.2474 81.9 24.1572L81.9 24.1816V48.138H90.0586V37.6288C92.0266 38.5832 94.3575 39.1452 97.0588 39.1452C107.3 39.1452 111.475 30.9622 111.475 24.0525ZM0 19.4844H9.1V10.3153H0V19.4844ZM9.1 38.9689H0V29.7997H9.1V38.9689Z" fill="#1D2324"/>
<path d="M18.032 60.1341C18.032 60.5327 17.9973 60.7321 17.928 60.7321C17.824 60.7321 17.7027 60.7234 17.564 60.7061C17.4427 60.6714 17.2867 60.6541 17.096 60.6541H12.936L9.712 60.6281C9.608 60.6281 9.218 60.6541 8.542 60.7061L7.944 60.7581L7.892 61.4601C7.87467 61.7201 7.866 62.1274 7.866 62.6821C7.866 62.9594 7.88333 63.3234 7.918 63.7741C7.95267 64.1901 7.97 64.4934 7.97 64.6841V65.7241C7.97 66.0014 7.97867 66.2181 7.996 66.3741C8.152 66.3914 8.386 66.4001 8.698 66.4001H9.738C9.842 66.4001 10.05 66.3827 10.362 66.3481C10.8127 66.3134 11.2027 66.2961 11.532 66.2961C11.6707 66.2961 12.156 66.3221 12.988 66.3741L13.56 66.4001C13.6987 66.4001 13.898 66.3914 14.158 66.3741C14.418 66.3394 14.6693 66.3221 14.912 66.3221L15.77 66.3481C16.2207 66.3827 16.5327 66.4001 16.706 66.4001C16.8967 66.4001 17.0267 66.3914 17.096 66.3741L17.252 66.3481C17.3733 66.3481 17.46 66.3914 17.512 66.4781C17.564 66.5474 17.5813 66.6167 17.564 66.6861C17.5467 66.8074 17.538 66.9634 17.538 67.1541C17.538 67.3274 17.5293 67.4834 17.512 67.6221C17.4947 67.7607 17.4687 67.8474 17.434 67.8821C17.3993 67.8994 17.2953 67.9081 17.122 67.9081L16.082 67.8041C14.782 67.6827 13.9327 67.6221 13.534 67.6221C12.0607 67.6221 10.9773 67.6481 10.284 67.7001C10.0067 67.7347 9.70333 67.7521 9.374 67.7521C9.04467 67.7521 8.83667 67.7521 8.75 67.7521C8.42067 67.7521 8.178 67.7434 8.022 67.7261L7.944 68.1421C7.90933 68.4541 7.892 68.7314 7.892 68.9741C7.892 69.1821 7.90933 69.4247 7.944 69.7021C7.97867 69.9794 7.996 70.2221 7.996 70.4301L8.022 73.5241L7.996 74.8241C7.97867 74.9801 7.97 75.1967 7.97 75.4741C8.19533 75.4914 8.52467 75.5001 8.958 75.5001C9.322 75.5174 9.88533 75.5261 10.648 75.5261L12.052 75.5521C12.3467 75.5694 12.7973 75.5781 13.404 75.5781C13.768 75.5781 14.2447 75.5607 14.834 75.5261L15.926 75.5001C16.342 75.5001 16.6887 75.5087 16.966 75.5261C17.2433 75.5434 17.4513 75.5521 17.59 75.5521C17.7287 75.5521 17.8067 75.5781 17.824 75.6301C17.8587 75.6821 17.876 75.7947 17.876 75.9681C17.876 76.0894 17.8673 76.2194 17.85 76.3581C17.8327 76.4794 17.824 76.6181 17.824 76.7741C17.824 76.8954 17.7807 76.9821 17.694 77.0341C17.6073 77.0687 17.4687 77.0861 17.278 77.0861C17.0873 77.0861 16.9313 77.0774 16.81 77.0601C16.342 77.0081 15.3973 76.9821 13.976 76.9821C13.1093 76.9821 12.4853 76.9907 12.104 77.0081C11.8093 77.0254 11.324 77.0341 10.648 77.0341L8.23 77.0081C7.95267 76.9907 7.62333 76.9821 7.242 76.9821C6.99933 76.9821 6.83467 76.9561 6.748 76.9041C6.67867 76.8347 6.644 76.7307 6.644 76.5921L6.67 76.1761C6.68733 76.1067 6.696 76.0287 6.696 75.9421C6.696 75.8901 6.68733 75.7687 6.67 75.5781C6.65267 75.3701 6.644 74.9974 6.644 74.4601C6.644 73.9401 6.62667 73.0907 6.592 71.9121C6.54 70.9414 6.514 70.0054 6.514 69.1041C6.514 68.7227 6.55733 67.6221 6.644 65.8021C6.66133 65.4381 6.67867 65.0741 6.696 64.7101C6.71333 64.3461 6.722 64.0167 6.722 63.7221C6.722 61.7114 6.696 60.3854 6.644 59.7441C6.592 59.3281 6.84333 59.1201 7.398 59.1201C7.53667 59.1201 7.762 59.1374 8.074 59.1721C8.35133 59.2067 8.55933 59.2241 8.698 59.2241L10.336 59.1721C11.5147 59.1027 12.4247 59.0681 13.066 59.0681C13.8113 59.0681 14.86 59.0854 16.212 59.1201C16.6453 59.1374 17.1047 59.1461 17.59 59.1461C17.798 59.1461 17.928 59.1981 17.98 59.3021C18.032 59.4061 18.0493 59.5187 18.032 59.6401C18.032 59.7441 18.032 59.8134 18.032 59.8481V60.1341ZM30.6793 62.9941C30.246 62.9941 29.8126 63.1761 29.3793 63.5401C28.9633 63.9041 28.608 64.5107 28.3133 65.3601C28.0186 66.1921 27.8713 67.2667 27.8713 68.5841C27.8713 69.8667 28.0533 70.8894 28.4173 71.6521C28.7986 72.3974 29.2233 72.9174 29.6913 73.2121C30.1766 73.5067 30.5926 73.6541 30.9393 73.6541C31.2513 73.6541 31.572 73.5501 31.9013 73.3421C32.2306 73.1167 32.5166 72.8827 32.7593 72.6401C32.794 72.6054 32.846 72.5447 32.9153 72.4581C33.002 72.3714 33.08 72.3281 33.1493 72.3281C33.236 72.3281 33.34 72.3627 33.4613 72.4321L35.6713 73.6541C35.7406 73.6887 35.8446 73.7407 35.9833 73.8101C36.1393 73.8621 36.2433 73.9141 36.2953 73.9661C36.3646 74.0181 36.3993 74.0874 36.3993 74.1741C36.3993 74.2607 36.3733 74.3561 36.3213 74.4601C35.94 75.1014 35.342 75.7601 34.5273 76.4361C33.7126 77.1121 32.586 77.4501 31.1473 77.4501C30.0206 77.4501 28.9373 77.0341 27.8973 76.2021C26.8746 75.3527 26.0513 74.2001 25.4273 72.7441C24.8033 71.2881 24.4913 69.6847 24.4913 67.9341C24.4913 66.2007 24.786 64.6407 25.3753 63.2541C25.982 61.8674 26.7533 60.7841 27.6893 60.0041C28.6253 59.2241 29.5873 58.8341 30.5753 58.8341C31.806 58.8341 32.794 59.0941 33.5393 59.6141C34.302 60.1167 34.848 60.6021 35.1773 61.0701C35.2466 61.1741 35.3073 61.2694 35.3593 61.3561C35.4286 61.4427 35.4633 61.5294 35.4633 61.6161C35.4633 61.7201 35.368 61.8587 35.1773 62.0321C34.38 62.6561 33.808 63.2021 33.4613 63.6701C33.288 63.8954 33.1406 64.0687 33.0193 64.1901C32.898 64.2941 32.7766 64.3461 32.6553 64.3461C32.534 64.3461 32.3953 64.2594 32.2393 64.0861C31.8753 63.6874 31.5893 63.4101 31.3813 63.2541C31.1906 63.0807 30.9566 62.9941 30.6793 62.9941ZM49.1136 58.5741C50.847 58.5741 52.147 59.0767 53.0136 60.0821C53.8803 61.0701 54.435 62.2487 54.6776 63.6181C54.9203 64.9701 55.0416 66.5041 55.0416 68.2201C55.0416 69.6067 54.8336 71.0367 54.4176 72.5101C54.0016 73.9661 53.3603 75.1967 52.4936 76.2021C51.627 77.2074 50.561 77.7101 49.2956 77.7101C46.817 77.7101 45.1703 76.6701 44.3556 74.5901C43.541 72.4927 43.1336 70.2481 43.1336 67.8561C43.1336 65.5507 43.4456 63.7047 44.0696 62.3181C44.711 60.9314 45.4823 59.9607 46.3836 59.4061C47.3023 58.8514 48.2123 58.5741 49.1136 58.5741ZM49.0876 71.1061C49.5556 71.1061 49.9023 70.8461 50.1276 70.3261C50.353 69.8061 50.4656 69.1821 50.4656 68.4541C50.4656 67.7607 50.353 67.1541 50.1276 66.6341C49.9196 66.1141 49.6336 65.8541 49.2696 65.8541C48.8363 65.8541 48.507 66.1574 48.2816 66.7641C48.0736 67.3534 47.9696 67.9947 47.9696 68.6881C47.9696 69.3987 48.039 69.9794 48.1776 70.4301C48.3163 70.8807 48.6196 71.1061 49.0876 71.1061ZM64.5482 59.6141C64.5829 60.0127 64.6609 60.4461 64.7822 60.9141C64.9209 61.3821 65.1115 61.9887 65.3542 62.7341C65.5275 63.2714 65.9695 64.4761 66.6802 66.3481C67.4082 68.2201 67.8935 69.4247 68.1362 69.9621C68.3615 70.5341 68.6649 71.4094 69.0462 72.5881L69.6182 74.3561L69.9562 73.7581L70.6842 72.3281C70.7882 72.0854 71.1089 71.4527 71.6462 70.4301C72.7729 68.3327 73.5095 66.8767 73.8562 66.0621C74.1162 65.4554 74.4889 64.6407 74.9742 63.6181C75.0955 63.3407 75.2429 63.0114 75.4162 62.6301C75.6069 62.2314 75.7369 61.9454 75.8062 61.7721C75.8409 61.6681 75.9449 61.3474 76.1182 60.8101C76.3089 60.2554 76.4909 59.7874 76.6642 59.4061C76.8549 59.0247 77.0109 58.8341 77.1322 58.8341C77.2709 58.8341 77.3402 59.0334 77.3402 59.4321C77.3402 59.6574 77.3315 59.8827 77.3142 60.1081C77.2969 60.3161 77.2795 60.5067 77.2622 60.6801L77.1842 61.6161C77.1322 62.5174 77.1062 64.1814 77.1062 66.6081C77.1062 67.4574 77.0889 68.5407 77.0542 69.8581C77.0369 71.1581 77.0109 72.0334 76.9762 72.4841L76.9502 76.7221V76.8001C76.9502 76.9734 76.8549 77.0601 76.6642 77.0601C76.1962 77.0601 75.8929 77.0514 75.7542 77.0341C75.6675 77.0167 75.6242 76.9474 75.6242 76.8261L75.6502 76.3841C75.6502 75.6387 75.6675 74.4254 75.7022 72.7441C75.7369 71.0454 75.7802 69.9187 75.8322 69.3641C75.8495 68.9481 75.8582 68.0727 75.8582 66.7381C75.8582 66.0101 75.8495 65.4554 75.8322 65.0741C75.4682 65.7154 75.2515 66.1141 75.1822 66.2701C75.0435 66.5127 74.8442 66.8941 74.5842 67.4141C74.5322 67.5181 74.4715 67.6394 74.4022 67.7781C74.3329 67.9167 74.2549 68.0554 74.1682 68.1941C73.9429 68.6447 73.4402 69.6587 72.6602 71.2361L71.8282 72.9521C71.6549 73.2467 71.3689 73.7841 70.9702 74.5641C70.5715 75.3441 70.3029 75.8727 70.1642 76.1501L69.7482 76.9821C69.6442 77.2074 69.5142 77.4067 69.3582 77.5801C69.2195 77.7534 69.0982 77.8401 68.9942 77.8401C68.8902 77.8401 68.8122 77.8141 68.7602 77.7621C68.7255 77.7101 68.6909 77.6234 68.6562 77.5021C68.6215 77.3981 68.5955 77.3201 68.5782 77.2681C68.5435 77.1641 68.3529 76.6181 68.0062 75.6301C67.6595 74.6247 67.3909 73.9054 67.2002 73.4721C66.9575 72.8827 66.6455 72.1114 66.2642 71.1581C65.8829 70.2047 65.6315 69.5201 65.5102 69.1041C65.3542 68.6707 65.2155 68.2547 65.0942 67.8561L64.7042 66.6341C64.3749 65.6634 64.1842 65.0827 64.1322 64.8921L64.0802 65.8541C64.0629 66.2181 64.0542 66.7727 64.0542 67.5181C64.0542 69.9794 64.0195 71.6954 63.9502 72.6661C63.9329 72.9087 63.9242 73.4027 63.9242 74.1481L63.9502 76.7741V76.8521C63.9502 77.1641 63.8289 77.3027 63.5862 77.2681C63.4995 77.2334 63.3609 77.2161 63.1702 77.2161C62.9795 77.2161 62.8409 77.2161 62.7542 77.2161C62.6675 77.2161 62.6242 77.1554 62.6242 77.0341L62.6502 76.5661L62.5982 74.0701L62.5202 68.6361C62.5202 67.7521 62.5375 66.6947 62.5722 65.4641C62.6069 64.2161 62.6415 63.3754 62.6762 62.9421C62.7282 62.3701 62.7629 61.7461 62.7802 61.0701C62.8149 60.3767 62.8322 59.8134 62.8322 59.3801V59.2761C62.8322 59.0507 62.8582 58.9294 62.9102 58.9121C62.9622 58.8774 63.0489 58.8687 63.1702 58.8861H63.3782C63.6555 58.8861 63.8722 58.8774 64.0282 58.8601C64.3229 58.8601 64.4962 59.1114 64.5482 59.6141ZM88.4714 60.1861C88.558 60.6541 88.7574 61.3041 89.0694 62.1361C89.3987 62.9681 89.7107 63.6961 90.0054 64.3201C90.248 64.7361 90.5687 65.4121 90.9674 66.3481C91.3834 67.2667 91.678 67.9947 91.8514 68.5321C91.9554 68.8094 92.1027 69.1561 92.2934 69.5721L92.6834 70.5081L93.2294 71.7301C93.732 70.7421 94.096 70.0227 94.3214 69.5721L96.0114 66.1921L97.1814 63.8521C97.788 62.6041 98.1954 61.7981 98.4034 61.4341C98.7327 60.7581 99.0794 60.1341 99.4434 59.5621C99.8074 58.9727 100.067 58.6781 100.223 58.6781C100.362 58.6781 100.431 58.7907 100.431 59.0161C100.431 59.2241 100.388 59.5014 100.301 59.8481L100.197 60.4981C100.128 60.9661 100.093 63.0461 100.093 66.7381C100.093 67.5527 100.067 68.5407 100.015 69.7021C99.9807 70.8634 99.946 71.6347 99.9114 72.0161C99.8767 72.4667 99.8594 73.1341 99.8594 74.0181L99.8854 76.5401V76.6701C99.8854 76.8781 99.8334 76.9647 99.7294 76.9301H99.6774C99.5907 76.9301 99.4867 76.9387 99.3654 76.9561C99.2614 76.9734 99.1487 76.9821 99.0274 76.9821C98.958 76.9647 98.906 76.9214 98.8714 76.8521C98.854 76.7827 98.8454 76.6614 98.8454 76.4881V74.9541C98.8454 73.1861 98.8627 72.1461 98.8974 71.8341C98.932 71.4701 98.9667 70.7941 99.0014 69.8061C99.0534 68.8181 99.0794 68.0207 99.0794 67.4141C99.062 67.2581 99.0707 66.7727 99.1054 65.9581L99.1314 65.0221L99.1834 63.1501C99.062 63.3234 98.958 63.5054 98.8714 63.6961C98.698 63.9907 98.5334 64.3114 98.3774 64.6581L98.1174 65.1781C97.8227 65.7501 97.4847 66.4261 97.1034 67.2061C96.722 67.9687 96.3927 68.6187 96.1154 69.1561C95.8034 69.7801 95.4047 70.5861 94.9194 71.5741C94.4514 72.5447 94.0874 73.3161 93.8274 73.8881C93.3767 74.9454 93.1167 75.4741 93.0474 75.4741C92.9954 75.4741 92.9174 75.3874 92.8134 75.2141C92.7094 75.0407 92.64 74.9281 92.6054 74.8761C92.484 74.6854 92.2934 74.2867 92.0334 73.6801C91.7734 73.0561 91.5654 72.5101 91.4094 72.0421C91.3054 71.7301 90.8547 70.8547 90.0574 69.4161C89.4334 68.2201 89.1127 67.5961 89.0954 67.5441C88.922 67.1974 88.688 66.6167 88.3934 65.8021C88.2027 65.3687 88.0554 64.9874 87.9514 64.6581L87.8994 65.8021L87.8474 67.5701L87.7954 72.6921L87.7694 76.7481C87.7694 76.9041 87.726 76.9994 87.6394 77.0341C87.5527 77.0687 87.4487 77.0861 87.3274 77.0861C87.206 77.0687 87.1107 77.0601 87.0414 77.0601L86.4694 77.0861C86.1574 77.1207 85.932 77.1381 85.7934 77.1381C85.5334 77.1381 85.3774 77.0861 85.3254 76.9821C85.2907 76.8607 85.282 76.6181 85.2994 76.2541C85.2994 75.6821 85.2907 75.1361 85.2734 74.6161L85.2214 71.4181C85.2214 70.9327 85.2387 70.4301 85.2734 69.9101C85.308 69.3727 85.334 68.8961 85.3514 68.4801C85.438 67.2321 85.4814 66.3567 85.4814 65.8541L85.5334 60.9661L85.5074 59.5621C85.5074 58.9554 85.5507 58.6087 85.6374 58.5221C85.6894 58.4701 85.75 58.4441 85.8194 58.4441C85.8714 58.4441 85.9494 58.4614 86.0534 58.4961C86.1574 58.5307 86.2874 58.5394 86.4434 58.5221C86.5994 58.5047 86.816 58.4961 87.0934 58.4961C87.4227 58.4961 87.6654 58.5134 87.8214 58.5481C87.9774 58.6001 88.09 58.7301 88.1594 58.9381C88.2287 59.1287 88.2894 59.3541 88.3414 59.6141C88.3934 59.8567 88.4367 60.0474 88.4714 60.1861ZM119.198 60.1341C119.198 60.5327 119.163 60.7321 119.094 60.7321C118.99 60.7321 118.869 60.7234 118.73 60.7061C118.609 60.6714 118.453 60.6541 118.262 60.6541H114.102L110.878 60.6281C110.774 60.6281 110.384 60.6541 109.708 60.7061L109.11 60.7581L109.058 61.4601C109.041 61.7201 109.032 62.1274 109.032 62.6821C109.032 62.9594 109.049 63.3234 109.084 63.7741C109.119 64.1901 109.136 64.4934 109.136 64.6841V65.7241C109.136 66.0014 109.145 66.2181 109.162 66.3741C109.318 66.3914 109.552 66.4001 109.864 66.4001H110.904C111.008 66.4001 111.216 66.3827 111.528 66.3481C111.979 66.3134 112.369 66.2961 112.698 66.2961C112.837 66.2961 113.322 66.3221 114.154 66.3741L114.726 66.4001C114.865 66.4001 115.064 66.3914 115.324 66.3741C115.584 66.3394 115.835 66.3221 116.078 66.3221L116.936 66.3481C117.387 66.3827 117.699 66.4001 117.872 66.4001C118.063 66.4001 118.193 66.3914 118.262 66.3741L118.418 66.3481C118.539 66.3481 118.626 66.3914 118.678 66.4781C118.73 66.5474 118.747 66.6167 118.73 66.6861C118.713 66.8074 118.704 66.9634 118.704 67.1541C118.704 67.3274 118.695 67.4834 118.678 67.6221C118.661 67.7607 118.635 67.8474 118.6 67.8821C118.565 67.8994 118.461 67.9081 118.288 67.9081L117.248 67.8041C115.948 67.6827 115.099 67.6221 114.7 67.6221C113.227 67.6221 112.143 67.6481 111.45 67.7001C111.173 67.7347 110.869 67.7521 110.54 67.7521C110.211 67.7521 110.003 67.7521 109.916 67.7521C109.587 67.7521 109.344 67.7434 109.188 67.7261L109.11 68.1421C109.075 68.4541 109.058 68.7314 109.058 68.9741C109.058 69.1821 109.075 69.4247 109.11 69.7021C109.145 69.9794 109.162 70.2221 109.162 70.4301L109.188 73.5241L109.162 74.8241C109.145 74.9801 109.136 75.1967 109.136 75.4741C109.361 75.4914 109.691 75.5001 110.124 75.5001C110.488 75.5174 111.051 75.5261 111.814 75.5261L113.218 75.5521C113.513 75.5694 113.963 75.5781 114.57 75.5781C114.934 75.5781 115.411 75.5607 116 75.5261L117.092 75.5001C117.508 75.5001 117.855 75.5087 118.132 75.5261C118.409 75.5434 118.617 75.5521 118.756 75.5521C118.895 75.5521 118.973 75.5781 118.99 75.6301C119.025 75.6821 119.042 75.7947 119.042 75.9681C119.042 76.0894 119.033 76.2194 119.016 76.3581C118.999 76.4794 118.99 76.6181 118.99 76.7741C118.99 76.8954 118.947 76.9821 118.86 77.0341C118.773 77.0687 118.635 77.0861 118.444 77.0861C118.253 77.0861 118.097 77.0774 117.976 77.0601C117.508 77.0081 116.563 76.9821 115.142 76.9821C114.275 76.9821 113.651 76.9907 113.27 77.0081C112.975 77.0254 112.49 77.0341 111.814 77.0341L109.396 77.0081C109.119 76.9907 108.789 76.9821 108.408 76.9821C108.165 76.9821 108.001 76.9561 107.914 76.9041C107.845 76.8347 107.81 76.7307 107.81 76.5921L107.836 76.1761C107.853 76.1067 107.862 76.0287 107.862 75.9421C107.862 75.8901 107.853 75.7687 107.836 75.5781C107.819 75.3701 107.81 74.9974 107.81 74.4601C107.81 73.9401 107.793 73.0907 107.758 71.9121C107.706 70.9414 107.68 70.0054 107.68 69.1041C107.68 68.7227 107.723 67.6221 107.81 65.8021C107.827 65.4381 107.845 65.0741 107.862 64.7101C107.879 64.3461 107.888 64.0167 107.888 63.7221C107.888 61.7114 107.862 60.3854 107.81 59.7441C107.758 59.3281 108.009 59.1201 108.564 59.1201C108.703 59.1201 108.928 59.1374 109.24 59.1721C109.517 59.2067 109.725 59.2241 109.864 59.2241L111.502 59.1721C112.681 59.1027 113.591 59.0681 114.232 59.0681C114.977 59.0681 116.026 59.0854 117.378 59.1201C117.811 59.1374 118.271 59.1461 118.756 59.1461C118.964 59.1461 119.094 59.1981 119.146 59.3021C119.198 59.4061 119.215 59.5187 119.198 59.6401C119.198 59.7441 119.198 59.8134 119.198 59.8481V60.1341ZM138.085 76.0721C138.553 76.5401 138.787 76.8607 138.787 77.0341C138.787 77.0687 138.744 77.1294 138.657 77.2161C138.501 77.3201 138.111 77.3721 137.487 77.3721C137.037 77.3721 136.751 77.3374 136.629 77.2681C136.508 77.2161 136.413 77.1207 136.343 76.9821C136.291 76.8434 136.248 76.7394 136.213 76.6701C136.161 76.5661 135.945 76.2714 135.563 75.7861C135.199 75.2834 134.922 74.9021 134.731 74.6421C133.813 73.4634 133.015 72.3974 132.339 71.4441C131.923 70.8547 131.152 69.8407 130.025 68.4021L129.609 67.8821L127.815 65.6461L127.711 66.6861C127.642 67.2061 127.625 67.8301 127.659 68.5581C127.711 69.0434 127.746 70.3001 127.763 72.3281C127.781 74.3561 127.789 75.8381 127.789 76.7741C127.789 77.0514 127.685 77.2247 127.477 77.2941C127.269 77.3807 127.027 77.4241 126.749 77.4241C126.628 77.4241 126.55 77.3721 126.515 77.2681C126.481 77.1641 126.455 77.0514 126.437 76.9301C126.437 76.8087 126.437 76.7307 126.437 76.6961C126.403 76.4187 126.385 76.0114 126.385 75.4741C126.385 75.1274 126.394 74.8674 126.411 74.6941C126.429 73.7581 126.455 72.1287 126.489 69.8061C126.524 67.4661 126.541 65.3687 126.541 63.5141C126.541 61.5207 126.515 60.3594 126.463 60.0301C126.446 59.8914 126.437 59.7094 126.437 59.4841C126.437 59.2241 126.472 59.0594 126.541 58.9901C126.628 58.9207 126.749 58.8861 126.905 58.8861C127.252 58.8861 127.59 58.8947 127.919 58.9121L130.753 58.9641C131.793 58.9641 132.877 59.1461 134.003 59.5101C135.13 59.8741 135.693 60.5501 135.693 61.5381C135.693 62.4741 135.347 63.2021 134.653 63.7221C133.96 64.2421 133.18 64.5974 132.313 64.7881C131.464 64.9787 130.719 65.0741 130.077 65.0741C129.852 65.0741 129.731 65.0654 129.713 65.0481C129.817 65.1521 130.502 66.0707 131.767 67.8041C135.581 72.9174 137.687 75.6734 138.085 76.0721ZM127.737 64.0081C128.309 64.0081 128.743 63.9994 129.037 63.9821C130.043 63.9474 130.823 63.8781 131.377 63.7741C132.175 63.6354 132.773 63.4447 133.171 63.2021C133.587 62.9594 133.795 62.5781 133.795 62.0581C133.795 61.7114 133.613 61.4167 133.249 61.1741C132.885 60.9141 132.443 60.7234 131.923 60.6021C131.421 60.4634 130.979 60.3941 130.597 60.3941C130.164 60.3767 129.557 60.3681 128.777 60.3681H127.893L127.737 64.0081ZM151.17 62.9941C150.736 62.9941 150.303 63.1761 149.87 63.5401C149.454 63.9041 149.098 64.5107 148.804 65.3601C148.509 66.1921 148.362 67.2667 148.362 68.5841C148.362 69.8667 148.544 70.8894 148.908 71.6521C149.289 72.3974 149.714 72.9174 150.182 73.2121C150.667 73.5067 151.083 73.6541 151.43 73.6541C151.742 73.6541 152.062 73.5501 152.392 73.3421C152.721 73.1167 153.007 72.8827 153.25 72.6401C153.284 72.6054 153.336 72.5447 153.406 72.4581C153.492 72.3714 153.57 72.3281 153.64 72.3281C153.726 72.3281 153.83 72.3627 153.952 72.4321L156.162 73.6541C156.231 73.6887 156.335 73.7407 156.474 73.8101C156.63 73.8621 156.734 73.9141 156.786 73.9661C156.855 74.0181 156.89 74.0874 156.89 74.1741C156.89 74.2607 156.864 74.3561 156.812 74.4601C156.43 75.1014 155.832 75.7601 155.018 76.4361C154.203 77.1121 153.076 77.4501 151.638 77.4501C150.511 77.4501 149.428 77.0341 148.388 76.2021C147.365 75.3527 146.542 74.2001 145.918 72.7441C145.294 71.2881 144.982 69.6847 144.982 67.9341C144.982 66.2007 145.276 64.6407 145.866 63.2541C146.472 61.8674 147.244 60.7841 148.18 60.0041C149.116 59.2241 150.078 58.8341 151.066 58.8341C152.296 58.8341 153.284 59.0941 154.03 59.6141C154.792 60.1167 155.338 60.6021 155.668 61.0701C155.737 61.1741 155.798 61.2694 155.85 61.3561C155.919 61.4427 155.954 61.5294 155.954 61.6161C155.954 61.7201 155.858 61.8587 155.668 62.0321C154.87 62.6561 154.298 63.2021 153.952 63.6701C153.778 63.8954 153.631 64.0687 153.51 64.1901C153.388 64.2941 153.267 64.3461 153.146 64.3461C153.024 64.3461 152.886 64.2594 152.73 64.0861C152.366 63.6874 152.08 63.4101 151.872 63.2541C151.681 63.0807 151.447 62.9941 151.17 62.9941ZM174.622 61.6161C174.622 61.9627 174.596 62.2834 174.544 62.5781C174.527 62.8381 174.405 62.9681 174.18 62.9681C174.111 62.9681 174.015 62.9507 173.894 62.9161C173.773 62.8814 173.677 62.8554 173.608 62.8381C173.348 62.7861 172.594 62.7601 171.346 62.7601L170.358 62.7341C170.133 62.7167 169.803 62.7081 169.37 62.7081C169.058 62.7081 168.824 62.7167 168.668 62.7341C168.148 62.7687 167.689 62.7861 167.29 62.7861L165.912 62.7601C165.773 62.7601 165.695 62.7947 165.678 62.8641C165.661 62.9161 165.652 63.0547 165.652 63.2801C165.652 63.5921 165.643 63.8607 165.626 64.0861C165.591 64.7794 165.574 65.3427 165.574 65.7761V67.3101C165.574 67.6741 165.583 67.9514 165.6 68.1421C165.739 68.1594 165.973 68.1681 166.302 68.1681C166.597 68.1854 167.203 68.1941 168.122 68.1941C168.503 68.1941 169.058 68.1767 169.786 68.1421C170.341 68.1074 170.705 68.0901 170.878 68.0901C171.121 68.0901 171.363 68.1074 171.606 68.1421C171.849 68.1594 172.031 68.1681 172.152 68.1681C172.377 68.1681 172.49 68.2721 172.49 68.4801C172.49 68.5494 172.481 68.6534 172.464 68.7921C172.447 68.9134 172.438 69.0781 172.438 69.2861L172.464 70.6641C172.464 70.8201 172.447 70.9327 172.412 71.0021C172.377 71.0541 172.317 71.0801 172.23 71.0801C172.178 71.0801 172.1 71.0714 171.996 71.0541C171.909 71.0194 171.831 71.0021 171.762 71.0021C171.606 71.0021 171.311 70.9934 170.878 70.9761C170.462 70.9587 169.89 70.9501 169.162 70.9501C168.382 70.9501 167.706 70.9847 167.134 71.0541C166.562 71.1234 166.215 71.1581 166.094 71.1581C165.903 71.1581 165.791 71.1494 165.756 71.1321C165.669 71.1321 165.617 71.1234 165.6 71.1061V73.7061C165.721 73.7061 165.817 73.6974 165.886 73.6801L166.614 73.6541L169.682 73.6281C170.306 73.6281 170.8 73.6367 171.164 73.6541L172.958 73.6801L174.05 73.6541C174.258 73.6541 174.397 73.7061 174.466 73.8101C174.535 73.8967 174.57 74.0267 174.57 74.2001L174.544 74.7201L174.518 76.5401C174.518 76.8174 174.457 76.9907 174.336 77.0601C174.215 77.1121 174.041 77.1381 173.816 77.1381C173.591 77.1207 173.409 77.1121 173.27 77.1121C172.525 77.1121 171.883 77.1034 171.346 77.0861L168.694 77.0601C168.486 77.0601 167.446 77.0861 165.574 77.1381L164.586 77.1641L164.43 77.1901C164.326 77.1901 164.265 77.1641 164.248 77.1121C164.231 77.0427 164.222 76.9214 164.222 76.7481C164.205 76.5574 164.196 76.2367 164.196 75.7861C164.196 75.6474 164.187 75.5001 164.17 75.3441C164.153 75.1707 164.144 74.9454 164.144 74.6681V71.1061C164.144 70.7594 164.153 70.4214 164.17 70.0921C164.205 69.7627 164.222 69.5201 164.222 69.3641C164.291 68.5667 164.326 67.8041 164.326 67.0761C164.326 66.1747 164.3 65.4641 164.248 64.9441C164.213 64.3547 164.196 63.8174 164.196 63.3321C164.196 62.2401 164.222 60.9661 164.274 59.5101C164.274 59.2847 164.317 59.1374 164.404 59.0681C164.491 58.9814 164.612 58.9381 164.768 58.9381L165.158 58.9641C165.314 58.9641 165.565 58.9814 165.912 59.0161C166.259 59.0334 166.683 59.0421 167.186 59.0421C167.758 59.0421 168.434 58.9987 169.214 58.9121C170.15 58.8427 170.774 58.8081 171.086 58.8081C171.797 58.8081 172.447 58.8341 173.036 58.8861L173.972 58.9121C174.197 58.9121 174.345 58.9641 174.414 59.0681C174.483 59.1721 174.518 59.3627 174.518 59.6401C174.518 59.7961 174.535 60.0647 174.57 60.4461C174.605 60.8967 174.622 61.2867 174.622 61.6161Z" fill="#F1395F"/>
</svg>
